HIERARCHY
ROOT Hips
{
	OFFSET 0.00 0.00 0.00
	CHANNELS 6 Xposition Yposition Zposition Xrotation Yrotation Zrotation
	JOINT Spine
	{
		OFFSET 0.00000 6.11665 0.00000
		CHANNELS 3 Xrotation Yrotation Zrotation
		JOINT Head
		{
			OFFSET 0.00000 15.22556 0.00000
			CHANNELS 3 Xrotation Yrotation Zrotation
			End Site
			{
				OFFSET 0.00000 4.52755 0.00000
			}
		}
		JOINT LeftShoulder
		{
			OFFSET 0.00000 8.97765 0.00000
			CHANNELS 3 Xrotation Yrotation Zrotation
			JOINT LeftArm
			{
				OFFSET 7.11013 0.00000 0.00000
				CHANNELS 3 Xrotation Yrotation Zrotation
				JOINT LeftForeArm
				{
					OFFSET 10.39834 0.00000 0.00000
					CHANNELS 3 Yrotation Zrotation Xrotation
					JOINT LeftHand
					{
						OFFSET 8.88900 0.00000 0.00000
						CHANNELS 3 Xrotation Yrotation Zrotation
						JOINT LeftHandThumb1
						{
							OFFSET 0.00000 0.00000 0.00000
							CHANNELS 3 Xrotation Zrotation Yrotation
							End Site
							{
								OFFSET 0.00000 0.00000 3.93700
							}
						}
						End Site
						{
							OFFSET 3.93700 0.00000 0.00000
						}
					}
				}
			}
		}
		JOINT RightShoulder
		{
			OFFSET 0.00000 8.97765 0.00000
			CHANNELS 3 Xrotation Yrotation Zrotation
			JOINT RightArm
			{
				OFFSET -7.11013 0.00000 0.00000
				CHANNELS 3 Xrotation Yrotation Zrotation
				JOINT RightForeArm
				{
					OFFSET -10.39834 0.00000 0.00000
					CHANNELS 3 Yrotation Zrotation Xrotation
					JOINT RightHand
					{
						OFFSET -8.88900 0.00000 0.00000
						CHANNELS 3 Xrotation Yrotation Zrotation
						JOINT RightHandThumb1
						{
							OFFSET 0.00000 0.00000 0.00000
							CHANNELS 3 Xrotation Zrotation Yrotation
							End Site
							{
								OFFSET 0.00000 0.00000 3.93700
							}
						}
						End Site
						{
							OFFSET -3.93700 0.00000 0.00000
						}
					}
				}
			}
		}
	}
	JOINT LeftUpLeg
	{
		OFFSET 4.71176 0.00000 0.00000
		CHANNELS 3 Xrotation Yrotation Zrotation
		JOINT LeftLeg
		{
			OFFSET 0.00000 -15.51045 0.00000
			CHANNELS 3 Xrotation Yrotation Zrotation
			JOINT LeftFoot
			{
				OFFSET 0.00000 -14.85806 0.00000
				CHANNELS 3 Xrotation Yrotation Zrotation
				JOINT LeftToeBase
				{
					OFFSET 0.00000 -1.32744 4.95409
					CHANNELS 3 Xrotation Yrotation Zrotation
					End Site
					{
						OFFSET 0.00000 0.00000 2.95275
					}
				}
			}
		}
	}
	JOINT RightUpLeg
	{
		OFFSET -4.71176 0.00000 0.00000
		CHANNELS 3 Xrotation Yrotation Zrotation
		JOINT RightLeg
		{
			OFFSET 0.00000 -15.51045 0.00000
			CHANNELS 3 Xrotation Yrotation Zrotation
			JOINT RightFoot
			{
				OFFSET 0.00000 -14.85806 0.00000
				CHANNELS 3 Xrotation Yrotation Zrotation
				JOINT RightToeBase
				{
					OFFSET 0.00000 -1.32744 4.95409
					CHANNELS 3 Xrotation Yrotation Zrotation
					End Site
					{
						OFFSET 0.00000 0.00000 2.95275
					}
				}
			}
		}
	}
}
MOTION
Frames: 17
Frame Time: 0.008333
 4.4698 32.3997 2.2653 -3.3256 0.3551 0.6853 2.9128 5.5538 -1.3480 3.0580 -9.1173 1.8777 -13.8168 6.8386 41.0578 -21.7339 -2.1543 -42.3086 7.0893 0.0000 18.3461 -0.9963 -7.3563 -7.7345 33.1476 -0.0000 26.2537 0.9719 -24.4095 -40.9705 -25.8787 -6.8439 43.6808 9.6088 -0.0000 16.0048 -1.3953 13.6400 5.8972 32.8623 0.0000 -24.3270 7.7225 -3.9133 -3.1064 2.4733 0.0000 0.0000 -11.3992 22.2931 -12.4633 17.2611 0.0000 -0.0000 7.5655 -5.6654 3.5348 2.1606 0.0000 0.0000 -10.0189 -18.3729 4.6513 10.4901 0.0000 -0.0000
 4.4687 32.3999 2.2659 -3.3239 0.3660 0.6876 2.9226 5.5642 -1.3585 3.0542 -9.0582 1.8440 -13.8242 6.8374 41.0624 -21.7236 -2.1828 -42.3446 7.1017 0.0000 18.3323 -0.9915 -7.3337 -7.7214 33.1476 -0.0000 26.2537 0.9650 -24.3967 -40.9585 -25.8608 -6.8792 43.6922 9.6479 -0.0000 15.9733 -1.3781 13.6076 5.8385 32.8623 0.0000 -24.3270 7.7235 -3.8852 -3.1047 2.4595 0.0000 -0.0000 -11.3737 22.2676 -12.4552 17.1904 -0.0000 0.0000 7.5592 -5.6149 3.5285 2.1911 0.0000 -0.0000 -10.1359 -18.5065 4.9107 11.0182 -0.0000 0.0000
 4.4677 32.3994 2.2661 -3.3169 0.3790 0.6896 2.9133 5.5571 -1.3588 3.0737 -9.0686 1.8423 -13.7814 6.8794 41.0577 -21.7635 -2.2097 -42.3810 7.1468 0.0000 18.3318 -1.0032 -7.4260 -7.7155 33.1476 -0.0000 26.2537 0.9230 -24.3468 -40.9870 -25.8130 -6.9142 43.7284 9.6847 -0.0000 15.9072 -1.3583 13.5761 5.7679 32.8623 0.0000 -24.3270 7.7157 -3.8928 -3.1038 2.4617 0.0000 0.0000 -11.3409 22.1978 -12.3405 16.8811 -0.0000 -0.0000 7.5431 -5.6197 3.5322 2.2009 0.0000 -0.0000 -10.0956 -18.4587 4.7799 10.7280 -0.0000 0.0000
 4.4669 32.3992 2.2664 -3.3165 0.3995 0.6931 2.9184 5.5494 -1.3606 3.0746 -9.0881 1.8329 -13.7770 6.8591 41.0482 -21.7076 -2.2630 -42.4071 7.2078 0.0000 18.2718 -1.0037 -7.4520 -7.6932 33.1476 -0.0000 26.2537 0.9670 -24.3996 -40.9677 -25.9112 -6.9328 43.7581 9.7072 -0.0000 15.9234 -1.3729 13.5726 5.8311 32.8623 0.0000 -24.3270 7.7098 -3.9243 -3.1000 2.4653 0.0000 0.0000 -11.3807 22.2712 -12.4834 17.1826 0.0000 -0.0000 7.5539 -5.6613 3.5372 2.1884 -0.0000 -0.0000 -10.0870 -18.4326 4.7332 10.7046 -0.0000 0.0000
 4.4658 32.3992 2.2660 -3.3077 0.4086 0.6942 2.9156 5.5627 -1.3696 3.0830 -9.0746 1.8325 -13.7686 6.8367 41.0420 -21.6735 -2.2308 -42.4314 7.1480 0.0000 18.2415 -1.0009 -7.4316 -7.6925 33.1476 -0.0000 26.2537 0.9563 -24.3777 -40.9567 -25.8986 -6.9846 43.7669 9.7509 -0.0000 15.9273 -1.3738 13.6116 5.8184 32.8623 0.0000 -24.3270 7.7024 -3.9100 -3.0985 2.4592 -0.0000 -0.0000 -11.3722 22.2480 -12.4654 17.1480 -0.0000 -0.0000 7.5268 -5.5922 3.5305 2.2324 -0.0000 -0.0000 -10.1692 -18.5684 4.9234 11.0443 0.0000 -0.0000
 4.4644 32.3992 2.2675 -3.3176 0.4352 0.6983 2.9300 5.5553 -1.3769 3.0911 -9.0676 1.8209 -13.7507 6.8546 41.0313 -21.6791 -2.2690 -42.4665 7.1742 0.0000 18.2728 -1.0062 -7.4781 -7.6858 33.1476 -0.0000 26.2537 0.9856 -24.4087 -40.9327 -25.9935 -7.0331 43.7871 9.7765 -0.0000 15.9632 -1.3812 13.6346 5.8403 32.8623 0.0000 -24.3270 7.7111 -3.9239 -3.0946 2.4606 -0.0000 -0.0000 -11.3732 22.2356 -12.5030 17.1442 -0.0000 -0.0000 7.5498 -5.6581 3.5376 2.2091 0.0000 0.0000 -10.1046 -18.4700 4.7595 10.6985 0.0000 -0.0000
 4.4645 32.3989 2.2659 -3.3000 0.4413 0.7014 2.9198 5.5551 -1.3830 3.0995 -9.0442 1.8131 -13.7548 6.8451 41.0291 -21.4783 -2.3515 -42.5071 7.0354 0.0000 18.0644 -0.9884 -7.3057 -7.7259 33.1476 -0.0000 26.2537 1.0128 -24.4241 -40.9003 -25.9743 -7.0092 43.8118 9.8835 -0.0000 15.8597 -1.3629 13.6067 5.7746 32.8623 0.0000 -24.3270 7.6879 -3.9393 -3.1009 2.4750 -0.0000 -0.0000 -11.3459 22.1756 -12.3755 16.9607 -0.0000 -0.0000 7.5252 -5.6693 3.5384 2.2094 -0.0000 0.0000 -10.0662 -18.4599 4.6347 10.4372 -0.0000 0.0000
 4.4605 32.3993 2.2698 -3.3224 0.4720 0.6921 2.9444 5.5347 -1.3891 3.1117 -9.0104 1.8257 -13.7497 6.8371 41.0255 -21.5588 -2.2043 -42.5295 6.9669 0.0000 18.2317 -0.9883 -7.4100 -7.6190 33.1476 -0.0000 26.2537 1.0203 -24.4218 -40.8647 -26.0121 -7.0506 43.8364 9.9460 -0.0000 15.8977 -1.3343 13.6245 5.6470 32.8623 0.0000 -24.3270 7.7250 -3.9276 -3.0746 2.4437 0.0000 -0.0000 -11.3537 22.1920 -12.4944 17.1011 -0.0000 -0.0000 7.5644 -5.7163 3.5564 2.2116 0.0000 -0.0000 -10.1045 -18.4508 4.7257 10.7114 -0.0000 0.0000
 4.4596 32.3991 2.2701 -3.3222 0.4830 0.6980 2.9553 5.5432 -1.3960 3.1033 -9.0031 1.8029 -13.7261 6.8746 41.0192 -21.5621 -2.2357 -42.5933 6.9720 0.0000 18.2153 -0.9676 -7.4262 -7.4451 33.1476 -0.0000 26.2537 1.0293 -24.4497 -40.8418 -26.0501 -7.0755 43.8697 10.0261 -0.0000 15.8722 -1.3325 13.6420 5.6327 32.8623 0.0000 -24.3270 7.7214 -3.9471 -3.0778 2.4580 -0.0000 0.0000 -11.3898 22.2106 -12.5531 17.3161 0.0000 -0.0000 7.5688 -5.7481 3.5554 2.2001 -0.0000 0.0000 -10.0605 -18.4268 4.6336 10.4274 0.0000 -0.0000
 4.4591 32.3991 2.2699 -3.3112 0.4942 0.6986 2.9464 5.5379 -1.3960 3.1147 -8.9982 1.7954 -13.7073 6.8684 40.9978 -21.4984 -2.1512 -42.6266 6.8440 0.0000 18.1598 -0.9630 -7.5312 -7.3084 33.1476 -0.0000 26.2537 1.0396 -24.4338 -40.8006 -26.1009 -7.1566 43.8727 10.1481 -0.0000 15.8970 -1.3036 13.6471 5.5089 32.8623 0.0000 -24.3270 7.7085 -3.9496 -3.0753 2.4477 0.0000 0.0000 -11.3510 22.1990 -12.5139 17.1121 0.0000 -0.0000 7.5560 -5.7551 3.5561 2.2157 0.0000 -0.0000 -10.1098 -18.4507 4.7640 10.6763 -0.0000 -0.0000
 4.4569 32.3990 2.2693 -3.2993 0.5100 0.6970 2.9442 5.5396 -1.3991 3.1090 -8.9883 1.8014 -13.6862 6.8846 40.9908 -21.4359 -2.1455 -42.6887 6.7181 0.0000 18.1005 -0.9518 -7.4141 -7.3364 33.1476 -0.0000 26.2537 1.0819 -24.4834 -40.7623 -26.2071 -7.2534 43.9319 10.3209 -0.0000 15.8363 -1.2507 13.5910 5.3081 32.8623 0.0000 -24.3270 7.6987 -3.9903 -3.0735 2.4470 -0.0000 0.0000 -11.3246 22.1767 -12.3991 16.8287 0.0000 0.0000 7.5494 -5.7882 3.5648 2.2079 0.0000 0.0000 -10.1061 -18.4350 4.7453 10.6720 -0.0000 -0.0000
 4.4556 32.3992 2.2690 -3.2911 0.5190 0.6989 2.9452 5.5336 -1.3985 3.1047 -8.9794 1.7692 -13.6615 6.9017 40.9763 -21.3541 -2.0879 -42.7557 6.5626 0.0000 18.0538 -0.9381 -7.3751 -7.2692 33.1476 -0.0000 26.2537 1.0323 -24.4309 -40.7495 -26.1865 -7.3918 43.9668 10.5851 -0.0000 15.6326 -1.2356 13.5183 5.2720 32.8623 0.0000 -24.3270 7.6885 -3.9805 -3.0655 2.4379 0.0000 -0.0000 -11.3593 22.2137 -12.5275 17.2273 0.0000 -0.0000 7.5411 -5.8180 3.5670 2.2132 -0.0000 0.0000 -10.1098 -18.4203 4.7386 10.6867 0.0000 -0.0000
 4.4565 32.3994 2.2691 -3.2895 0.5260 0.7039 2.9513 5.5296 -1.3885 3.0967 -8.9665 1.7178 -13.6474 6.8792 40.9333 -21.1743 -2.0473 -42.8024 6.4667 0.0000 17.9244 -0.9410 -7.6357 -7.0469 33.1476 -0.0000 26.2537 1.0910 -24.4960 -40.6991 -26.4199 -7.5965 44.0185 10.8428 -0.0000 15.5151 -1.2098 13.5412 5.1538 32.8623 0.0000 -24.3270 7.6838 -3.9535 -3.0694 2.4424 -0.0000 0.0000 -11.3370 22.1748 -12.5520 17.1125 -0.0000 0.0000 7.5556 -5.8817 3.5655 2.1878 -0.0000 -0.0000 -10.1053 -18.3857 4.7263 10.6948 -0.0000 0.0000
 4.4580 32.3992 2.2641 -3.2512 0.5164 0.7093 2.9347 5.5240 -1.3831 3.0506 -8.9401 1.6944 -13.6124 6.9270 40.9073 -21.2215 -1.7059 -42.8907 6.0247 0.0000 17.9953 -0.8944 -7.3762 -6.9331 33.1476 -0.0000 26.2537 1.0802 -24.5193 -40.6329 -26.6280 -7.8254 44.0568 11.1718 -0.0000 15.3091 -1.1562 13.5848 4.9109 32.8623 0.0000 -24.3270 7.6328 -3.9754 -3.0810 2.4486 0.0000 0.0000 -11.3322 22.2080 -12.5566 17.1565 -0.0000 -0.0000 7.4999 -5.8650 3.5566 2.1984 -0.0000 -0.0000 -10.1058 -18.3980 4.7243 10.6682 0.0000 -0.0000
 4.4568 32.3992 2.2652 -3.2544 0.5322 0.7109 2.9487 5.5049 -1.3694 3.0224 -8.9415 1.6545 -13.5398 6.9780 40.8814 -21.0270 -1.6694 -43.0103 5.7867 0.0000 17.6571 -0.8659 -7.4033 -6.6900 33.1476 -0.0000 26.2537 1.0965 -24.5810 -40.5732 -26.8617 -8.0971 44.1373 11.5970 -0.0000 15.0583 -1.1031 13.6277 4.6722 32.8623 0.0000 -24.3270 7.6386 -3.9850 -3.0816 2.4565 -0.0000 -0.0000 -11.3128 22.1273 -12.3995 16.9688 0.0000 0.0000 7.5139 -5.9090 3.5623 2.1883 -0.0000 0.0000 -10.0986 -18.3842 4.7172 10.6103 -0.0000 0.0000
 4.4556 32.3994 2.2653 -3.2431 0.5435 0.7183 2.9517 5.4797 -1.3702 2.9926 -8.9267 1.6319 -13.4714 7.0116 40.8424 -20.8069 -1.5690 -43.1186 5.4512 0.0000 17.4648 -0.8244 -7.3282 -6.4367 33.1476 -0.0000 26.2537 1.0525 -24.5815 -40.5026 -27.0408 -8.4286 44.2120 12.1371 -0.0000 14.8935 -1.0349 13.5774 4.4002 32.8623 0.0000 -24.3270 7.6306 -3.9878 -3.0802 2.4336 0.0000 -0.0000 -11.3169 22.1733 -12.5195 17.1405 0.0000 -0.0000 7.5082 -5.9590 3.5617 2.1740 0.0000 -0.0000 -10.0525 -18.3355 4.6062 10.3564 0.0000 -0.0000
 4.4556 32.3991 2.2625 -3.2210 0.5388 0.7196 2.9587 5.4782 -1.3607 2.9338 -8.8882 1.5943 -13.4080 7.0365 40.7890 -20.5750 -1.4261 -43.2370 5.0486 0.0000 17.2278 -0.8003 -7.3013 -6.2727 33.1476 -0.0000 26.2537 1.0343 -24.6513 -40.4041 -27.2967 -8.7554 44.3041 12.7429 -0.0000 14.8240 -0.9676 13.7006 4.0789 32.8623 0.0000 -24.3270 7.6036 -3.9790 -3.0815 2.4334 -0.0000 -0.0000 -11.3185 22.1721 -12.5186 17.1668 -0.0000 0.0000 7.4774 -5.9434 3.5623 2.1845 0.0000 0.0000 -10.1048 -18.3802 4.6457 10.6042 -0.0000 0.0000
